<svg xmlns="http://www.w3.org/2000/svg" width="18" height="17.201" viewBox="0 0 18 17.201">
  <path id="b5783c601e16032733df8073caacab72" d="M0,7A1.871,1.871,0,0,1,.608,5.565,2.231,2.231,0,0,1,2.189,5a2.164,2.164,0,0,1,1.546.556A1.96,1.96,0,0,1,4.344,7.05a1.83,1.83,0,0,1-.591,1.39,2.235,2.235,0,0,1-1.6.573H2.137A2.126,2.126,0,0,1,.591,8.44,1.926,1.926,0,0,1,0,7ZM.226,22.2V10.595H4.083V22.2Zm5.994,0h3.857V15.72a2.262,2.262,0,0,1,.877-1.937,1.888,1.888,0,0,1,1.242-.408q1.946,0,1.946,2.624v6.2H18V15.546a5.592,5.592,0,0,0-1.216-3.9,4.149,4.149,0,0,0-3.214-1.329,3.943,3.943,0,0,0-3.492,1.929v.035H10.06l.017-.035V10.595H6.22q.035.556.035,3.458T6.22,22.2Z" transform="translate(0 -5)" fill="#fff"/>
</svg>
