<svg xmlns="http://www.w3.org/2000/svg" width="60" height="60" viewBox="0 0 60 60">
  <g id="Grupo_14" data-name="Grupo 14" transform="translate(-126 -891)">
    <path id="Subtração_1" data-name="Subtração 1" d="M40,109H-10a5.006,5.006,0,0,1-5-5V54a5.006,5.006,0,0,1,5-5H40a5.006,5.006,0,0,1,5,5v50A5.006,5.006,0,0,1,40,109ZM15,55a23.7,23.7,0,0,0-9.319,1.894A24.234,24.234,0,0,0-7.106,69.681a23.874,23.874,0,0,0,0,18.637A24.234,24.234,0,0,0,5.681,101.106a23.874,23.874,0,0,0,18.637,0A24.234,24.234,0,0,0,37.106,88.319,23.7,23.7,0,0,0,39,79,23.968,23.968,0,0,0,15,55Zm9.789,35.41h0A1.406,1.406,0,0,1,24,90.16a23.524,23.524,0,0,0-12.552-3.322A38.738,38.738,0,0,0,2.88,87.88a1.366,1.366,0,0,1-.376.054A1.582,1.582,0,0,1,1.08,86.8,1.509,1.509,0,0,1,2.16,85a42.181,42.181,0,0,1,9.153-1.078A26.529,26.529,0,0,1,25.44,87.64a1.253,1.253,0,0,1,.7.732,1.689,1.689,0,0,1-.1,1.308A1.517,1.517,0,0,1,24.789,90.41Zm2.527-6.432h0a1.551,1.551,0,0,1-.916-.3,30.347,30.347,0,0,0-15.412-3.993A28.392,28.392,0,0,0,2.52,80.92a2.062,2.062,0,0,1-.5.061A1.775,1.775,0,0,1,.24,79.72a1.859,1.859,0,0,1,1.2-2.281,33.078,33.078,0,0,1,9.547-1.348,36.726,36.726,0,0,1,9.239,1.172A30.275,30.275,0,0,1,28.44,80.68a1.5,1.5,0,0,1,.729.995,1.7,1.7,0,0,1-.249,1.405A2.019,2.019,0,0,1,27.316,83.978Zm3.03-7.32h0a2.444,2.444,0,0,1-1.186-.3,28.066,28.066,0,0,0-8.33-3.107,44.761,44.761,0,0,0-9.4-.983A35.311,35.311,0,0,0,1.32,73.6a2.2,2.2,0,0,1-.633.094A2.268,2.268,0,0,1-1.44,72.16,2.252,2.252,0,0,1,0,69.4a41.708,41.708,0,0,1,11.428-1.475,49.216,49.216,0,0,1,10.54,1.124,32.26,32.26,0,0,1,9.472,3.59,2.317,2.317,0,0,1,.841,3.12A2.413,2.413,0,0,1,30.346,76.658Z" transform="translate(141 842)" fill="#00da5a"/>
    <path id="Caminho_20" data-name="Caminho 20" d="M32.977,267.648c-.492-.118-.58-.2-.58-.373s.154-.274.383-.274a1.12,1.12,0,0,1,.673.256.033.033,0,0,0,.046-.007l.24-.339a.032.032,0,0,0-.006-.044,1.455,1.455,0,0,0-.946-.328.81.81,0,0,0-.9.776c0,.49.32.663.874.8.471.108.551.2.551.362,0,.18-.161.292-.42.292a1.131,1.131,0,0,1-.784-.324.034.034,0,0,0-.024-.008.032.032,0,0,0-.022.011l-.27.321a.032.032,0,0,0,0,.045,1.607,1.607,0,0,0,1.086.416c.573,0,.943-.313.943-.8,0-.41-.245-.636-.845-.782m2.141-.486a.773.773,0,0,0-.62.3v-.226a.032.032,0,0,0-.032-.032h-.441a.032.032,0,0,0-.032.032v2.507a.032.032,0,0,0,.032.032h.441a.032.032,0,0,0,.032-.032v-.791a.792.792,0,0,0,.62.281,1.041,1.041,0,0,0,0-2.069m.416,1.035a.532.532,0,0,1-.518.587.59.59,0,0,1,0-1.174.537.537,0,0,1,.518.587m1.71-1.035A1.037,1.037,0,1,0,38.3,268.2a1.04,1.04,0,0,0-1.056-1.035m0,1.625a.561.561,0,0,1-.554-.591.548.548,0,0,1,.547-.584.563.563,0,0,1,.558.591.549.549,0,0,1-.551.583M39.57,267.2h-.485v-.5a.032.032,0,0,0-.032-.032h-.441a.032.032,0,0,0-.032.032v.5h-.212a.032.032,0,0,0-.032.032v.379a.032.032,0,0,0,.032.032h.212v.981a.525.525,0,0,0,.586.6.8.8,0,0,0,.413-.1.032.032,0,0,0,.016-.028v-.361a.032.032,0,0,0-.047-.029.557.557,0,0,1-.259.062c-.142,0-.2-.064-.2-.208v-.912h.485a.032.032,0,0,0,.032-.032v-.379a.032.032,0,0,0-.032-.032m1.691,0v-.061c0-.179.069-.259.223-.259a.743.743,0,0,1,.248.046.032.032,0,0,0,.042-.031v-.372a.032.032,0,0,0-.023-.031,1.21,1.21,0,0,0-.367-.053c-.407,0-.623.229-.623.663v.093h-.212a.032.032,0,0,0-.032.032v.381a.032.032,0,0,0,.032.032h.212v1.513a.032.032,0,0,0,.032.032h.441a.032.032,0,0,0,.032-.032v-1.513h.412l.631,1.512c-.072.159-.142.19-.238.19a.508.508,0,0,1-.243-.069.032.032,0,0,0-.045.015l-.149.328a.032.032,0,0,0,.014.042.93.93,0,0,0,.471.121c.326,0,.506-.152.664-.56l.765-1.977a.032.032,0,0,0-.03-.044H43.06a.032.032,0,0,0-.031.022l-.47,1.343-.515-1.344a.032.032,0,0,0-.03-.021h-.753Zm-.98,0H39.84a.032.032,0,0,0-.032.032v1.924a.032.032,0,0,0,.032.032h.441a.032.032,0,0,0,.032-.032v-1.924a.032.032,0,0,0-.032-.032m-.218-.876a.316.316,0,1,0,.316.316.316.316,0,0,0-.316-.316m3.863,1.495a.312.312,0,1,1,.312-.312.312.312,0,0,1-.312.312m0-.591a.28.28,0,1,0,.278.279.278.278,0,0,0-.278-.279m.069.311.088.123H44.01l-.079-.113h-.068v.113H43.8v-.326h.145c.076,0,.125.039.125.1a.1.1,0,0,1-.076.1m-.052-.147h-.081v.1h.081c.04,0,.064-.02.064-.052s-.024-.051-.064-.051" transform="translate(117.99 680.214)" fill="#fff"/>
  </g>
</svg>
