<svg xmlns="http://www.w3.org/2000/svg" width="60" height="60" viewBox="0 0 60 60">
  <g id="Grupo_15" data-name="Grupo 15" transform="translate(-219 -891)">
    <path id="Subtração_2" data-name="Subtração 2" d="M40,109H-10a5.006,5.006,0,0,1-5-5V54a5.006,5.006,0,0,1,5-5H40a5.006,5.006,0,0,1,5,5v50A5.006,5.006,0,0,1,40,109ZM15,53.729A25.263,25.263,0,1,0,38.285,88.836,25.263,25.263,0,0,0,15,53.729Z" transform="translate(234 842)"/>
    <g id="_2af200b5699603c131604204291e9745" data-name="2af200b5699603c131604204291e9745" transform="translate(-27.975 31.153)">
      <path id="Caminho_23" data-name="Caminho 23" d="M449.136,927.767a6.933,6.933,0,0,1-1.682-4.508h-1.386A6.32,6.32,0,0,0,449.136,927.767Zm-12.01,9.476a4.022,4.022,0,0,0-1.685,7.673,4.021,4.021,0,0,1,4.414-6.29V933.6a9.015,9.015,0,0,0-1.235-.085c-.086,0-.171,0-.256,0v3.922A4.02,4.02,0,0,0,437.125,937.244Zm15.66-7.488v3.953s-2.986.426-6.763-2.133v4.569c0,3.1.4,6.316-1.031,9.181a8.77,8.77,0,0,1-7.866,4.91,8.915,8.915,0,0,1-4.8-1.391,8.929,8.929,0,0,0,6.288,2.579,8.77,8.77,0,0,0,7.865-4.91c1.434-2.866,1.031-6.084,1.031-9.181v-4.568c3.778,2.559,6.764,2.133,6.764,2.133v-4.936A10.5,10.5,0,0,1,452.785,929.756Z" transform="translate(-164.249 -46.902)" fill="#ed2c58"/>
      <path id="Caminho_24" data-name="Caminho 24" d="M1116.169,1107.688v-.981a8.468,8.468,0,0,1-3.649-1.007A6.666,6.666,0,0,0,1116.169,1107.688Z" transform="translate(-827.633 -224.834)" fill="#00b8bd"/>
      <path id="Caminho_25" data-name="Caminho 25" d="M265.412,1300.255a8.957,8.957,0,0,1,8.7-8.953V1290.2a8.958,8.958,0,0,0-6.03,16.438A8.929,8.929,0,0,1,265.412,1300.255Z" transform="translate(0 -404.688)" fill="#00b7bc"/>
      <path id="Caminho_26" data-name="Caminho 26" d="M561.4,899.573a4.01,4.01,0,0,0,3.981-3.814c.2-2.719.1-5.448.1-8.172v-11.23h3.367a6.138,6.138,0,0,1-.107-1.188h-4.753V886.4c0,2.724.1,5.453-.1,8.172a3.99,3.99,0,0,1-5.666,3.443A4.015,4.015,0,0,0,561.4,899.573Z" transform="translate(-287.029 0)" fill="#00b7bc"/>
      <path id="Caminho_27" data-name="Caminho 27" d="M339.639,945.367c1.433-2.866,1.031-6.084,1.031-9.181v-4.569c3.778,2.559,6.763,2.133,6.763,2.133V929.8a6.666,6.666,0,0,1-3.649-1.988,6.321,6.321,0,0,1-3.068-4.508h-3.367v11.23c0,2.724.1,5.453-.1,8.172a4.968,4.968,0,1,1-4.238-5.223v-3.923a8.42,8.42,0,1,0-1.237,16.722A8.768,8.768,0,0,0,339.639,945.367Z" transform="translate(-58.898 -46.941)" fill="#0d0d0d"/>
    </g>
    <g id="Grupo_12" data-name="Grupo 12" transform="translate(-84.861 56.711)">
      <path id="Caminho_28" data-name="Caminho 28" d="M1563.38,1188.86v.58h.635v2.031h.663v-2.018h.511l.221-.594Z" transform="translate(-1235.454 -298.239)" fill="#fff"/>
      <path id="Caminho_29" data-name="Caminho 29" d="M2966.92,1188.86v.58h.636v2.031h.663v-2.018h.511l.221-.594Z" transform="translate(-2633.743 -298.239)" fill="#fff"/>
      <rect id="Retângulo_10" data-name="Retângulo 10" width="0.663" height="1.741" transform="translate(330.013 891.492)" fill="#fff"/>
      <path id="Caminho_30" data-name="Caminho 30" d="M2121.753,1189.192a.332.332,0,1,1-.332-.332A.332.332,0,0,1,2121.753,1189.192Zm.207-.332v2.612s.643-.021.663,0,0-.636,0-.636l.221-.179.553.816h.7l-.884-1.244.8-.7h-.788l-.58.567v-1.23Zm6.771,0v2.612s.643-.021.663,0,0-.636,0-.636l.221-.179.553.816h.7l-.884-1.244.8-.7H2130l-.581.567v-1.23Z" transform="translate(-1791.078 -298.239)" fill="#fff"/>
      <path id="Caminho_31" data-name="Caminho 31" d="M3439.822,1308.162a1.112,1.112,0,0,1,1.036-1.109l-.076,0a1.112,1.112,0,1,0,0,2.225l.076,0A1.112,1.112,0,0,1,3439.822,1308.162Z" transform="translate(-3104.724 -415.987)" fill="#00b9bf"/>
      <path id="Caminho_32" data-name="Caminho 32" d="M3792.475,1307.05h-.055a1.113,1.113,0,0,1,0,2.223h.055a1.113,1.113,0,1,0,0-2.225Z" transform="translate(-3456.154 -415.987)" fill="#ed2d58"/>
      <path id="Caminho_33" data-name="Caminho 33" d="M3481.507,1307.051h-.055l-.076,0a1.112,1.112,0,0,0,0,2.219l.076,0h.055a1.112,1.112,0,0,0,0-2.222Zm-.545,1.111a.494.494,0,0,1,.49-.49l.055,0a.489.489,0,0,1,0,.973.515.515,0,0,1-.055,0,.494.494,0,0,1-.49-.49Z" transform="translate(-3145.242 -415.987)" fill="#fff"/>
    </g>
  </g>
</svg>
