<svg xmlns="http://www.w3.org/2000/svg" width="26.336" height="18.106" viewBox="0 0 26.336 18.106">
  <g id="_2443570c3018eacc9a2e73733e21dec3" data-name="2443570c3018eacc9a2e73733e21dec3" transform="translate(0 -3)">
    <path id="Caminho_16" data-name="Caminho 16" d="M25.217,4.745c-.714-1.271-1.49-1.5-3.068-1.593C20.572,3.044,16.606,3,13.171,3s-7.409.044-8.984.15-2.352.323-3.073,1.595S0,8.2,0,12.048v.013c0,3.832.379,6.034,1.114,7.29s1.5,1.5,3.071,1.608,5.544.146,8.985.146,7.4-.054,8.979-.145c1.579-.107,2.354-.337,3.068-1.608.742-1.256,1.118-3.458,1.118-7.29V12.05c0-3.85-.375-6.036-1.119-7.3Z" fill="#fff" fill-rule="evenodd"/>
    <path id="Caminho_17" data-name="Caminho 17" d="M6,15.376V5.5l8.23,4.938Z" transform="translate(3.876 1.615)" fill="#f44336" fill-rule="evenodd"/>
  </g>
</svg>
